# xmcd
#
# Track frame offsets:
#	150
#	23853
#	55418
#	78348
#	97152
#	115856
#	139863
#	161466
#	184526
#	207401
#	221536
#	238011
#	256421
#
# Disc length: 3621 seconds
#
# Revision: 5
# Processed by: cddbd v1.5.1PL2 Copyright (c) Steve Scherf et al.
# Submitted via: audiograbber 1.80.04
#
DISCID=b60e230d
DTITLE=John Mayall and The Bluesbreakers - Padlock On The Blues
DYEAR=1900
DGENRE=Blues
TTITLE0=Don't Turn Your Back
TTITLE1=Padlock On The Blues
TTITLE2=A Hard Road
TTITLE3=Somebody's Watching
TTITLE4=Always A Brand New Road
TTITLE5=My Country Girl
TTITLE6=The Strip
TTITLE7=I've Got To Talk To You
TTITLE8=Dancing Shoes
TTITLE9=Bad Dream Catcher
TTITLE10=When The Blues Are Bad
TTITLE11=Ain't No Surrender
TTITLE12=White Line Fever
EXTD=Special Guests - John Lee Hooker, Coco Montoya and Ernie Watts ID3G: 8
EXTT0=
EXTT1=
EXTT2=
EXTT3=
EXTT4=
EXTT5=
EXTT6=
EXTT7=
EXTT8=
EXTT9=
EXTT10=
EXTT11=
EXTT12=
PLAYORDER=
